<svg xmlns="http://www.w3.org/2000/svg" enable-background="new 0 0 24 24" viewBox="0 0 24 24"><path fill="#F0BF1A" d="M22.212,5.04c-0.998,1.198-2.491,1.968-4.165,1.968H2.891C4.745,3.214,8.644,0.59,13.16,0.59C16.849,0.59,20.12,2.34,22.212,5.04z"/><path fill="#3EBEB0" d="M22.25,18.913c-2.092,2.729-5.382,4.497-9.09,4.497c-4.516,0-8.415-2.624-10.269-6.418h15.223C19.778,16.992,21.261,17.734,22.25,18.913z"/><path fill="#07A5DE" d="M19.968,12c0,1.449-1.464,2.605-3.204,2.605H2.216C1.912,13.781,1.75,12.91,1.75,12s0.162-1.781,0.466-2.605h14.548C18.542,9.395,19.968,10.551,19.968,12z"/><path fill="#231F20" d="M12.123,12c0,0.956-0.143,1.819-0.39,2.605H2.216C1.912,13.781,1.75,12.91,1.75,12s0.162-1.781,0.466-2.605h9.518C11.981,10.181,12.123,11.044,12.123,12z"/><path fill="#D7A229" d="M7.419,2.123c-1.925,1.141-3.53,2.852-4.528,4.885h8.415C10.45,5.047,9.095,3.407,7.419,2.123z"/><path fill="#019B8F" d="M7.776,22.055c1.64-1.319,2.959-3.066,3.78-5.063H2.891C3.961,19.131,5.672,20.914,7.776,22.055z"/><path d="M2.649 8.289c-.247 0-.478-.122-.618-.325C1.891 7.759 1.86 7.499 1.95 7.268 1.954 7.257 1.986 7.175 1.99 7.165 3.896 2.833 8.166.021 12.869 0c.018 0 .035 0 .053 0 3.949 0 7.645 1.973 9.895 5.285.199.292.166.685-.079.94-1.206 1.26-2.885 1.987-4.604 1.995L2.652 8.289C2.651 8.289 2.65 8.289 2.649 8.289zM12.922 1.5c-.016 0-.031 0-.046 0C9.133 1.517 5.702 3.558 3.86 6.783L18.126 6.72c1.112-.005 2.202-.405 3.073-1.113C19.208 3.022 16.162 1.5 12.922 1.5zM12.923 24c-2.366 0-4.608-.677-6.52-1.959-1.943-1.272-3.452-3.058-4.4-5.187-.103-.231-.083-.5.055-.712s.373-.342.626-.343l15.479-.078c1.76 0 3.401.699 4.625 1.966.245.253.28.643.085.936-2.226 3.349-5.927 5.359-9.899 5.377C12.958 24 12.94 24 12.923 24zM3.911 17.293c.818 1.404 1.936 2.591 3.279 3.471 1.725 1.155 3.699 1.725 5.749 1.736 3.29-.015 6.345-1.568 8.318-4.187-.873-.708-1.949-1.091-3.087-1.092L3.911 17.293zM17.75 14.97H2.073c-.343 0-.643-.233-.727-.566C1.131 13.553 1.011 13.08 1 12.096c-.011-1.104.116-1.6.346-2.501C1.431 9.263 1.73 9.03 2.073 9.03H17.75c2.136 0 3.463 1.138 3.463 2.97C21.213 14.97 18.606 14.97 17.75 14.97zM2.66 13.47h15.09c1.68 0 1.963-.454 1.963-1.47 0-.975-.661-1.47-1.963-1.47H2.659c-.117.499-.166.858-.159 1.501C2.507 12.67 2.557 13.021 2.66 13.47z"/></svg>