<svg xmlns="http://www.w3.org/2000/svg" viewBox="0 0 32 64"><ellipse cx="16.5" cy="55" opacity=".3" rx="7.5" ry="4"/><path fill="#825012" d="M18 31v24c0 .6-.7 1-1.5 1s-1.5-.4-1.5-1V31h3z"/><circle cx="25.5" cy="29.5" r="6.5" fill="#539B00"/><circle cx="22" cy="21" r="9" fill="#539B00"/><path fill="#825012" d="M16 43.4c-2.6 0-3-.9-3-3.4v-8h-1v10c0 1.7 1.3 3 3 3h1v-1.6zM17 44.8c1.7 0 3-.4 3-2.1V33h1v10c0 1.7-1.3 3-3 3h-1v-1.2z"/><path fill="#825012" d="M13 41.8c-1.7 0-2-1.3-2-2.1V30h-1v10c0 1.7 1.3 3 3 3v-1.2z"/><circle cx="12" cy="31" r="9" fill="#539B00"/><circle cx="7" cy="27" r="6" fill="#539B00"/><path fill="#825012" d="M12 30.8c-1.7 0-3-.4-3-2.1V26H8v3c0 1.7 1.3 3 3 3h1v-1.2z"/><circle cx="11" cy="19" r="8" fill="#539B00"/><circle cx="15" cy="15" r="8" fill="#539B00"/><circle cx="21.5" cy="12.5" r="4.5" fill="#539B00"/><path fill="#FFF" d="M7.1 21c2.2 0 4.1 1.3 4.9 3.1.3-.1.7-.1 1.1-.1 1.8 0 3.4.9 4.4 2.2-.4-1.8-2-3.2-3.9-3.2h-.1c-.5-2.3-2.5-4-4.9-4-2 0-3.7 1.2-4.5 2.9.8-.6 1.9-.9 3-.9z" opacity=".2"/><path fill="#825012" d="M15 18.4c.2.2.5.4.7.6h.3v-3c-.3 0-.7-.1-1-.2v2.6z"/><path fill="#FFF" d="M15.5 11c2.4 0 4.3 1.9 4.5 4.2.5-.1 1-.2 1.5-.2 2.5 0 4.6 1.6 5.3 3.9.1-.4.2-.9.2-1.4 0-2.5-2-4.5-4.5-4.5-.5 0-1 .1-1.5.3-.1-1.8-1.6-3.3-3.5-3.3-1 0-1.9.4-2.5 1h.5z" opacity=".2"/><path d="M30.9 22.4c-1.7 1.9-4.1 3.1-6.8 3.1h-.6c1 1.1 1.6 2.4 1.7 3.9 2.9-1.1 5.2-3.8 5.7-7zM28.5 32.7c.3.7.4 1.5.5 2.3 1.7-1.1 2.9-2.9 3-5-.8 1.3-2.1 2.2-3.5 2.7zM6.7 21C5.1 19.6 4 17.5 4 15.1c-.6 1.1-1 2.5-1 3.9 0 1.1.2 2.1.6 3.1.9-.7 2-1 3.1-1.1z" opacity=".3"/><path fill="#825012" d="M22 22.6c0 1.7-1.3 2.1-3 2.1V26h1c1.7 0 3-1.3 3-3v-2c-.3 0-.7-.1-1-.2v1.8z"/><circle cx="19.8" cy="33.8" r="9.3" fill="#539B00"/><path fill="#FFF" d="M16 31c1.2 0 2.3.3 3.3.8 1.2-1.1 2.9-1.8 4.7-1.8 1.6 0 3.1.5 4.2 1.4-1.1-2-3.3-3.4-5.7-3.4-1.6 0-3.1.6-4.2 1.6-.7-.4-1.5-.6-2.3-.6-2.4 0-4.4 1.7-4.9 4 1.3-1.2 3-2 4.9-2z" opacity=".2"/><path d="M20.8 41c-3.8 0-7-2-8.8-5h-.9c-3.5 0-6.5-2-8-4.9 0 4.9 4 8.9 8.9 8.9h.9c1.7 1.9 4.1 3 6.8 3 3.6 0 6.6-2 8.2-4.9-1.8 1.8-4.4 2.9-7.1 2.9z" opacity=".3"/></svg>